<svg xmlns="http://www.w3.org/2000/svg" width="120.073" height="125.953" viewBox="0 0 120.073 125.953">
  <g id="Group_43" data-name="Group 43" transform="translate(-566.036 -4791.43)">
    <path id="Path_102" data-name="Path 102" d="M636.478,4896h35.455a83.407,83.407,0,0,0-11.991-2.56c-1.527-.209-4.955-.633-17.3-.911-4.361-.1-7.94-.135-10.32-.152Z" transform="translate(13.676 20.885)" fill="#fff" stroke="#000" stroke-linecap="round" stroke-linejoin="round" stroke-width="1"/>
    <path id="Path_103" data-name="Path 103" d="M602.3,4794.986a7.509,7.509,0,0,1,3.067-2.652,3.749,3.749,0,0,1,2.4-.331,3.8,3.8,0,0,1,2.4,2.237,4.477,4.477,0,0,1,0,2.983,8.686,8.686,0,0,1-.912,1.907c-.78,1.417-1.322,2.368-1.575,2.818-.7,1.239-1.155,2.151-2.072,3.979-.351.7-.814,1.634-1.342,2.742-.32.671-.594,1.259-.813,1.733l-13.26,2.4c2.063-2.907,3.693-5.3,4.807-6.961,2.854-4.253,4.282-6.379,4.475-6.713A37.316,37.316,0,0,1,602.3,4794.986Z" transform="translate(4.919 0)" fill="#fff" stroke="#000" stroke-linecap="round" stroke-linejoin="round" stroke-width="1"/>
    <path id="Path_104" data-name="Path 104" d="M602.479,4808.622c1.487-2.368,2.645-4.291,3.4-5.553,1.965-3.3,2.945-5.109,5.138-6.63,1.692-1.175,2.716-1.213,3.4-1.078a3.411,3.411,0,0,1,2.237,1.658c.269.545.428,1.335-.165,3.232a18.076,18.076,0,0,1-2.569,4.973c-.872,1.289-2.032,2.935-3.481,4.806Z" transform="translate(7.472 0.704)" stroke="#000" stroke-linecap="round" stroke-linejoin="round" stroke-width="1"/>
    <path id="Path_105" data-name="Path 105" d="M587.934,4821.254c1.371,1.243,5.143,4.664,10.691,4.641a14.717,14.717,0,0,0,13.095-8.371c1.181-2.79,1.169-6.079,1.159-8.867,0-.933-.045-1.789-.1-2.554-3.865-.208-7.145-.417-9.827-.842a11.652,11.652,0,0,0-2.535-.145c-5.65.307-9.638,4.806-10.631,5.927a21.181,21.181,0,0,0-4.249,7.552A18.175,18.175,0,0,0,587.934,4821.254Z" transform="translate(3.949 2.74)" fill="#fff" stroke="#000" stroke-linecap="round" stroke-linejoin="round" stroke-width="1"/>
    <path id="Path_106" data-name="Path 106" d="M635.789,4815.123a8.036,8.036,0,0,0,4.557,3.231,10.648,10.648,0,0,0,4.051.547,9.117,9.117,0,0,0-1.3-6.445c-1.759-2.511-4.781-3.144-7.6-3.669l-.6-.109a13.523,13.523,0,0,0-.1,1.72A8.523,8.523,0,0,0,635.789,4815.123Z" transform="translate(14.191 3.484)" stroke="#000" stroke-linecap="round" stroke-linejoin="round" stroke-width="1"/>
    <path id="Path_107" data-name="Path 107" d="M654.537,4818.925a8.03,8.03,0,0,1-4.557-3.232,8.519,8.519,0,0,1-1-4.724,13.546,13.546,0,0,1,.1-1.72,236.762,236.762,0,0,0-32.361-3.319c.059.765.1,1.621.1,2.553.01,2.788.022,6.077-1.16,8.867a14.716,14.716,0,0,1-13.095,8.371c-5.548.024-9.32-3.4-10.691-4.641a18.167,18.167,0,0,1-2.4-2.659,40.994,40.994,0,0,0-1.3,5.337c-2.525,13.375-2.866,24.045-3.576,37.16-.507,9.387-.984,16-1.128,17.969-.649,8.844-1.32,16.08-1.8,20.885a15.131,15.131,0,0,0-15.146,14.2h83.618q-7.22-18.609-14.439-37.22a12.117,12.117,0,0,1-2.628-1.334,14.284,14.284,0,0,1-5.431-8.009,21.8,21.8,0,0,1-.828-6.629c-.046-1.939-.063-4.272,0-6.948q-2.535-6.531-5.069-13.063a1.149,1.149,0,0,1-.087-.546,1.252,1.252,0,0,1,.152-.458c.442-.766,25.262-10.064,30.226-12.06a10.248,10.248,0,0,0,4.456-3.144,10.736,10.736,0,0,0,2.086-5.086A10.659,10.659,0,0,1,654.537,4818.925Z" transform="translate(0 2.913)" fill="#fff" stroke="#000" stroke-linecap="round" stroke-linejoin="round" stroke-width="1"/>
    <path id="Path_108" data-name="Path 108" d="M616.457,4852.535a21.8,21.8,0,0,0,.829,6.629,14.282,14.282,0,0,0,5.431,8.009,12.073,12.073,0,0,0,2.628,1.334l-8.891-22.92C616.394,4848.263,616.411,4850.6,616.457,4852.535Z" transform="translate(10.37 11.157)" fill="#fff" stroke="#000" stroke-linecap="round" stroke-linejoin="round" stroke-width="1"/>
    <circle id="Ellipse_13" data-name="Ellipse 13" cx="1.74" cy="1.74" r="1.74" transform="translate(602.575 4815.292)"/>
    <path id="Path_109" data-name="Path 109" d="M616.473,4828.226a1.159,1.159,0,1,0-.278,1.784A1.292,1.292,0,0,0,616.473,4828.226Z" transform="translate(9.927 7.386)"/>
    <path id="Path_110" data-name="Path 110" d="M594.381,4861.214c-.063,10.107-.347,17.092-.608,21.7-.1,1.829-.446,7.58-.759,15.481-.069,1.723-.12,3.141-.152,4.078" transform="translate(5.473 14.406)" fill="none" stroke="#000" stroke-miterlimit="10" stroke-width="1"/>
    <path id="Path_111" data-name="Path 111" d="M598.266,4861.339q2.54,14.745,4.857,29.9.859,5.628,1.669,11.21" transform="translate(6.597 14.432)" fill="none" stroke="#000" stroke-miterlimit="10" stroke-width="1"/>
    <path id="Path_112" data-name="Path 112" d="M611.209,4859.707l5.16,30.355a12.72,12.72,0,0,1,8.045,3.338,12.952,12.952,0,0,1,3.946,9.391" transform="translate(9.287 14.092)" fill="none" stroke="#000" stroke-miterlimit="10" stroke-width="1"/>
  </g>
</svg>
