<svg xmlns="http://www.w3.org/2000/svg" width="75.634" height="60.57" viewBox="0 0 75.634 60.57">
  <path id="Path_100" data-name="Path 100" d="M1301.637,3970.914c-.194-.216-3.037,1.344-5,3.889-3.521,4.567-2.74,10.408-2.48,12.356a21.164,21.164,0,0,0,3.964,9.682,17.842,17.842,0,0,0-1.318,7.581c.137,2.511.759,3.1,2.087,10a37.156,37.156,0,0,1,.659,4.5,18.251,18.251,0,0,1,0,5.383,4.4,4.4,0,0,0-.22,2.2,6.027,6.027,0,0,0,1.648,2.307c2.146,2.36,2.362,2.575,2.857,2.637a2.315,2.315,0,0,0,2.417-1.318c.2-.781-.633-1.216-1.319-2.747a8.328,8.328,0,0,1-.659-3.625,9.879,9.879,0,0,1,1.208-4.614,2.5,2.5,0,0,1,1.208,1.208,2.925,2.925,0,0,1,0,1.758,12.491,12.491,0,0,0,.11,3.516c.082.6.452,3.336,2.527,4.724,1.283.858,3.281,1.245,3.955.439.479-.572.157-1.589,0-2.087-.524-1.658-1.542-1.644-2.2-3.186a8.44,8.44,0,0,1-.33-3.625,18.285,18.285,0,0,1,.22-2.417c4.7.551,8.6.833,11.316.989a204.466,204.466,0,0,0,31.641-.55c1.115-.129,4.7-.564,9.558-.769,2.491-.1,4.505-.115,5.713-.11l.33-27.026c-2.248.132-5.643.31-9.778.439-6.8.213-9.95.118-19.226.11-7.415-.007-14.8-.009-23.95.22-5.315.133-9.715.306-12.744.439a3.72,3.72,0,0,1-1.907-.391,4.042,4.042,0,0,1-1.661-1.784,22.218,22.218,0,0,1-2.676-7.566c-.155-1.573-.581-5.895,1.845-9.719C1300.52,3972.049,1301.775,3971.067,1301.637,3970.914Z" transform="translate(-1293.899 -3970.894)" fill="#f6c752"/>
</svg>
