<svg xmlns="http://www.w3.org/2000/svg" width="88.544" height="46.119" viewBox="0 0 88.544 46.119">
  <g id="Group_40" data-name="Group 40" transform="translate(0 0)">
    <path id="Path_97" data-name="Path 97" d="M1286.189,3739.587a5.332,5.332,0,0,0-.789-2.707,5.584,5.584,0,0,0-2.224-1.947,16.73,16.73,0,0,0-9.592-1.529,19.519,19.519,0,0,0-6.117,2.224c-4.836,2.463-9.711,3.4-19.461,5.282a131.281,131.281,0,0,1-14.318,1.946,9.93,9.93,0,0,0,.834,5.977c.437.854,1.8,3.164,8.063,5.561,3.321,1.272,7.634,1.977,16.125,3.336,7,1.121,7.125,1.139,7.646,1.251a54.082,54.082,0,0,1,15.013,5.7c-.083,6.857-1.367,8.854-2.585,9.345a4.215,4.215,0,0,0-2.141,1.359,2.778,2.778,0,0,0-.556,2.224c.537,1.5,3.7,2.106,5.561.973,1.1-.67,1.488-1.787,2.085-3.753.686-2.258,1.522-5.214,2.363-8.758l2.183.567c-.023,1.387-.092,2.538-.155,3.365-.263,3.439-.633,4.051-.915,4.408-.663.841-1.216.757-1.668,1.668a2.66,2.66,0,0,0,0,2.641c.835,1.043,3.07.742,4.309-.278.986-.812,1.135-1.911,1.529-3.892.324-1.625.844-4,1.668-6.95a221.7,221.7,0,0,0,23.215,1.529q2.96.039,5.838,0v-27.665q-11.35-.247-23.354-.971Q1292.365,3740.1,1286.189,3739.587Z" transform="translate(-1233.555 -3733.252)" fill="#f6c752"/>
    <path id="Path_98" data-name="Path 98" d="M1343.75,3784.544a4.485,4.485,0,0,0,3.186,1.538,4.644,4.644,0,0,0,3.735-1.978" transform="translate(-1319.846 -3773.073)" fill="#efc861" stroke="#000" stroke-linecap="round" stroke-linejoin="round" stroke-width="1"/>
    <path id="Path_99" data-name="Path 99" d="M1384.492,3759.795a84.023,84.023,0,0,1-.659,12.964c-.687,5.274-1.526,7.65-.439,11.206.4,1.318,1.857,6.075,5.823,7.141,4.047,1.088,7.735-2.465,8.13-2.856.983-.975,2.625-3,3.735-11.975a90.292,90.292,0,0,0,.659-12.854" transform="translate(-1350.48 -3754.037)" fill="#f6c752" stroke="#000" stroke-linecap="round" stroke-linejoin="round" stroke-width="1"/>
  </g>
</svg>
