<svg xmlns="http://www.w3.org/2000/svg" width="106.528" height="94.479" viewBox="0 0 106.528 94.479">
  <g id="Group_73" data-name="Group 73" transform="translate(-910.091 -4861.418)">
    <path id="Path_130" data-name="Path 130" d="M985.873,4924.537c.153,3.592.453,6.484.69,8.413.73,5.944,1.719,9.735,0,10.9a7.181,7.181,0,0,1-2.483.552c-2.232.317-2.879-.024-3.724.552a2.931,2.931,0,0,0-1.241,2.758c.342,1.825,3.081,2.47,3.724,2.621a8.762,8.762,0,0,0,8-2.345c.837-.847,1.522-1.923,2.621-6.482,1.642-6.813,2.463-10.22,1.241-12.413C992.652,4925.413,987.561,4924.7,985.873,4924.537Z" fill="#fff" stroke="#000" stroke-linecap="round" stroke-linejoin="round" stroke-width="1"/>
    <g id="Group_72" data-name="Group 72">
      <path id="Path_131" data-name="Path 131" d="M910.591,4945.928c0,2.78,5.058,5.244,12.843,6.771q6.3-8.181,11.424-14.945C920.956,4938.617,910.591,4941.948,910.591,4945.928Z" stroke="#000" stroke-linecap="round" stroke-linejoin="round" stroke-width="1"/>
      <path id="Path_132" data-name="Path 132" d="M973.37,4945.928a3.443,3.443,0,0,0-1.468-2.54c-.864,2.284-1.744,4.5-2.633,6.686C971.874,4948.851,973.37,4947.437,973.37,4945.928Z" stroke="#000" stroke-linecap="round" stroke-linejoin="round" stroke-width="1"/>
      <path id="Path_133" data-name="Path 133" d="M1016.078,4928.4c-.188-1.076-1.277-1.973-3.448-3.723-2.949-2.379-3.948-2.516-4.552-2.483-1.033.056-1.655.138-1.655.138a2.459,2.459,0,0,1-1.931.138c-2.257-1.016-.318-6.541-1.541-13.129-.294-1.587-1.867-9.139-8.209-13.993a20.449,20.449,0,0,0-9.124-3.86,22.952,22.952,0,0,0,1.4-12.633c-1.206-6.6-5.767-13.915-12.984-16.143-3.607-1.113-8.637-1.191-9.475.7-1.139,2.571,6.71,5.942,9.124,13.686,1.731,5.556-.054,11.057-1.755,14.738a42.253,42.253,0,0,0-5.966,4.212,44.04,44.04,0,0,0-9.825,11.931c-2.863,4.9-9.9,14.739-21.283,29.775q-5.121,6.765-11.424,14.945a98.7,98.7,0,0,0,18.547,1.623c11.694,0,21.888-1.711,27.288-4.248.889-2.183,1.769-4.4,2.633-6.686q1.716-4.538,3.351-9.335,1.476-4.344,2.759-8.551c.8.531,1.985,1.307,3.448,2.207a60.615,60.615,0,0,0,11.447,5.792,14.766,14.766,0,0,0,5.517,1.1,8.511,8.511,0,0,0,3.724-.69c2.359-1.1,3.4-3.23,3.724-3.034s-.552,2.069-.552,2.069a46.406,46.406,0,0,1-5.241,8.689c-2.491,3.133-4.7,5.776-6.482,7.861a14.453,14.453,0,0,0-2.9.414c-1.77.441-2.843.707-3.172,1.517-.456,1.122.7,2.838,2.069,3.586,1.238.675,2.466.458,4.138.138a15.411,15.411,0,0,0,6.62-2.758c1.78-1.308,2.629-2.509,4.551-5.1,2.739-3.7,3.033-3.981,10.344-15.861A4.4,4.4,0,0,0,1016.078,4928.4Z" fill="#fff" stroke="#000" stroke-linecap="round" stroke-linejoin="round" stroke-width="1"/>
    </g>
  </g>
</svg>
