<svg xmlns="http://www.w3.org/2000/svg" width="32" height="32" viewBox="0 0 32 32">
  <g id="Group_59" data-name="Group 59" transform="translate(716 -1814)">
    <g id="Ellipse_24" data-name="Ellipse 24" transform="translate(-715 1815)" fill="#f8d35f" stroke="#24241e" stroke-width="3.5">
      <circle cx="15" cy="15" r="15" stroke="none"/>
      <circle cx="15" cy="15" r="13.25" fill="none"/>
    </g>
    <path id="Icon_weather-moon-alt-first-quarter" data-name="Icon weather-moon-alt-first-quarter" d="M4.488,18.821A14.778,14.778,0,0,1,5.674,13a15.141,15.141,0,0,1,3.2-4.785,14.982,14.982,0,0,1,16.433-3.2,15.2,15.2,0,0,1,4.8,3.2,15.157,15.157,0,0,1,4.385,10.609A14.73,14.73,0,0,1,33.3,24.645a15.2,15.2,0,0,1-3.2,4.8,14.694,14.694,0,0,1-4.8,3.2,14.891,14.891,0,0,1-11.648,0,15.141,15.141,0,0,1-4.785-3.2,14.694,14.694,0,0,1-3.2-4.8A14.778,14.778,0,0,1,4.488,18.821Zm14.74,13.421h.253a13.112,13.112,0,0,0,5.211-1.066A13.474,13.474,0,0,0,28.97,28.31a13.7,13.7,0,0,0,2.865-4.278A12.886,12.886,0,0,0,32.9,18.821a13.1,13.1,0,0,0-1.066-5.2A13.474,13.474,0,0,0,28.97,9.346,13.7,13.7,0,0,0,24.692,6.48a12.886,12.886,0,0,0-5.211-1.066h-.253Z" transform="translate(-719.488 1811.172)" fill="#24241e"/>
    <rect id="Rectangle_123" data-name="Rectangle 123" width="32" height="32" transform="translate(-716 1814)" fill="none"/>
  </g>
</svg>
