<svg xmlns="http://www.w3.org/2000/svg" width="36" height="31.5" viewBox="0 0 36 31.5">
  <path id="Icon_awesome-paw" data-name="Icon awesome-paw" d="M18,15.75c-5.584,0-13.5,8.632-13.5,14.08,0,2.454,1.885,3.92,5.044,3.92,3.434,0,5.7-1.763,8.456-1.763,2.778,0,5.052,1.763,8.456,1.763,3.159,0,5.044-1.466,5.044-3.92C31.5,24.382,23.584,15.75,18,15.75ZM7.644,14.863c-.731-2.436-2.984-4.014-5.032-3.525S-.5,14.2.23,16.636s2.984,4.014,5.032,3.525,3.114-2.861,2.383-5.3ZM13.6,13.4c2.175-.572,3.264-3.511,2.431-6.564s-3.271-5.063-5.446-4.491S7.322,5.858,8.155,8.911,11.426,13.975,13.6,13.4Zm19.785-2.063c-2.048-.489-4.3,1.088-5.032,3.525s.335,4.808,2.383,5.3,4.3-1.088,5.032-3.525S35.434,11.829,33.386,11.339ZM22.4,13.4c2.175.572,4.614-1.438,5.446-4.491s-.256-5.991-2.431-6.564S20.8,3.785,19.967,6.838,20.223,12.83,22.4,13.4Z" transform="translate(0.001 -2.25)" fill="#24241e"/>
</svg>
